<svg xmlns="http://www.w3.org/2000/svg" version="1.1" xmlns:xlink="http://www.w3.org/1999/xlink" xmlns:svgjs="http://svgjs.dev/svgjs" width="431" height="431"><svg width="431" height="431" viewBox="0 0 431 431" fill="none" xmlns="http://www.w3.org/2000/svg">
<rect width="430.373" height="430.373" rx="70" fill="#FFE6E7"></rect>
<path d="M194.379 116.2C179.679 116.667 168.362 122.267 160.429 133C152.729 143.733 148.879 162.283 148.879 188.65C148.879 197.283 149.696 203.35 151.329 206.85C152.962 210.117 153.779 211.983 153.779 212.45C141.179 212.45 131.729 209.883 125.429 204.75C119.362 199.383 116.329 190.633 116.329 178.5C116.329 161.933 120.412 146.883 128.579 133.35C136.746 119.583 149.696 108.5 167.429 100.1C185.396 91.7 208.146 87.5 235.679 87.5C241.279 87.5 248.746 88.0833 258.079 89.25C274.879 90.8833 286.779 91.7 293.779 91.7C306.146 91.7 316.646 90.3 325.279 87.5C324.579 89.6 323.296 94.2666 321.429 101.5C319.562 108.5 316.179 114.567 311.279 119.7C306.612 124.6 300.196 127.867 292.029 129.5C278.262 129.5 261.929 127.283 243.029 122.85L228.329 192.5H279.429L273.829 218.4H222.729L194.379 350H143.979L194.379 116.2Z" fill="#FF6243"></path>
</svg><style>@media (prefers-color-scheme: light) { :root { filter: none; } }
@media (prefers-color-scheme: dark) { :root { filter: none; } }
</style></svg>